<svg width="65" height="72" viewBox="0 0 65 72" fill="none" xmlns="http://www.w3.org/2000/svg">
<path d="M62.6221 -0.140625H8.62207C7.38176 -0.140625 6.37207 0.869063 6.37207 2.10938V38.4247C5.68652 39.0428 5.24707 39.9282 5.24707 40.9219V41.1141C4.88571 40.9866 4.50527 40.9216 4.12207 40.9219C2.26104 40.9219 0.74707 42.4358 0.74707 44.2969V48.8332C0.74707 50.0406 0.922852 51.237 1.26893 52.3894L3.74196 60.6336C3.99427 61.4728 4.12233 62.3444 4.12207 63.2208V70.7344C4.12207 71.3562 4.62523 71.8594 5.24707 71.8594H62.6221C63.8624 71.8594 64.8721 70.8497 64.8721 69.6094V2.10938C64.8721 0.869063 63.8624 -0.140625 62.6221 -0.140625ZM27.1846 44.8594H26.0596C25.9104 44.8594 25.7673 44.9186 25.6618 45.0241C25.5563 45.1296 25.4971 45.2727 25.4971 45.4219C25.4971 44.1661 25.0701 43.0155 24.3721 42.0785V40.3594H28.8721V48.2344H25.4971V46.5469C25.4971 46.6961 25.5563 46.8391 25.6618 46.9446C25.7673 47.0501 25.9104 47.1094 26.0596 47.1094H27.1846C27.3338 47.1094 27.4768 47.0501 27.5823 46.9446C27.6878 46.8391 27.7471 46.6961 27.7471 46.5469V45.4219C27.7471 45.2727 27.6878 45.1296 27.5823 45.0241C27.4768 44.9186 27.3338 44.8594 27.1846 44.8594ZM25.4971 51.7258V50.4844H28.8721V51.6094C28.8721 52.2312 29.3752 52.7344 29.9971 52.7344H41.2471C41.8689 52.7344 42.3721 52.2312 42.3721 51.6094V50.4844H47.9971C48.6189 50.4844 49.1221 49.9812 49.1221 49.3594V39.2344C49.1221 38.6125 48.6189 38.1094 47.9971 38.1094H42.3721V36.9844C42.3721 36.3625 41.8689 35.8594 41.2471 35.8594H29.9971C29.3752 35.8594 28.8721 36.3625 28.8721 36.9844V38.1094H23.2471C22.6252 38.1094 22.1221 38.6125 22.1221 39.2344V40.2825C21.7626 40.1244 21.3908 39.9902 20.9971 39.9101V32.4844H53.6221C54.8624 32.4844 55.8721 31.4747 55.8721 30.2344V16.7344C55.8721 15.4941 54.8624 14.4844 53.6221 14.4844H17.6221C16.3818 14.4844 15.3721 15.4941 15.3721 16.7344V26.0497C14.6865 26.6678 14.2471 27.5532 14.2471 28.5469V36.6141C13.8857 36.4866 13.5053 36.4216 13.1221 36.4219V6.60938H58.1221V60.6094H21.2406C21.3898 60.3877 21.5258 60.1578 21.6979 59.9513L23.1503 58.2078C24.6651 56.3872 25.4953 54.0941 25.4971 51.7258ZM37.8721 45.9844H33.3721C32.7502 45.9844 32.2471 46.4875 32.2471 47.1094V50.4844H31.1221V38.1094H40.1221V50.4844H38.9971V47.1094C38.9971 46.4875 38.4939 45.9844 37.8721 45.9844ZM42.3721 48.2344V40.3594H46.8721V48.2344H42.3721ZM23.1537 24.6094C23.8249 24.6094 24.3721 25.1137 24.3721 25.7344C24.3721 26.3551 23.8249 26.8594 23.1537 26.8594H20.9971V24.6094H23.1537ZM20.9971 22.3594V20.1094H23.1537C23.8249 20.1094 24.3721 20.6137 24.3721 21.2344C24.3721 21.8551 23.8249 22.3594 23.1537 22.3594H20.9971ZM23.1537 29.1094C25.0665 29.1094 26.6221 27.5954 26.6221 25.7344C26.6221 24.8669 26.2746 24.0829 25.72 23.4844C26.2746 22.8859 26.6221 22.1019 26.6221 21.2344C26.6221 19.3733 25.0665 17.8594 23.1537 17.8594H19.8721C19.2502 17.8594 18.7471 18.3625 18.7471 18.9844V25.3792C18.3934 25.2532 18.0185 25.1719 17.6221 25.1719V16.7344H53.6221V30.2344H20.9971V29.1094H23.1537ZM35.6221 65.1094C36.2428 65.1094 36.7471 65.6137 36.7471 66.2344C36.7471 66.8551 36.2428 67.3594 35.6221 67.3594C35.0014 67.3594 34.4971 66.8551 34.4971 66.2344C34.4971 65.6137 35.0014 65.1094 35.6221 65.1094ZM18.3118 61.3429C17.8641 62.5004 17.6221 63.7365 17.6221 64.9929V69.6094H6.37207V63.2208C6.37226 62.1257 6.21237 61.0364 5.89746 59.9875L3.42443 51.7423C3.14074 50.7986 2.99676 49.8184 2.99707 48.833V44.2969C2.99707 43.6762 3.50135 43.1719 4.12207 43.1719C4.74279 43.1719 5.24707 43.6762 5.24707 44.2969V44.8594C5.24707 45.4812 5.75023 45.9844 6.37207 45.9844C6.99391 45.9844 7.49707 45.4812 7.49707 44.8594V40.9219C7.49707 40.3012 8.00135 39.7969 8.62207 39.7969C9.24279 39.7969 9.74707 40.3012 9.74707 40.9219V44.8594C9.74707 45.4812 10.2502 45.9844 10.8721 45.9844C11.4939 45.9844 11.9971 45.4812 11.9971 44.8594V39.7969C11.9971 39.1762 12.5014 38.6719 13.1221 38.6719C13.7428 38.6719 14.2471 39.1762 14.2471 39.7969V44.8594C14.2471 45.4812 14.7502 45.9844 15.3721 45.9844C15.9939 45.9844 16.4971 45.4812 16.4971 44.8594V28.5469C16.4971 27.9262 17.0014 27.4219 17.6221 27.4219C18.2428 27.4219 18.7471 27.9262 18.7471 28.5469V47.1094C18.7471 47.7312 19.2502 48.2344 19.8721 48.2344C20.4939 48.2344 20.9971 47.7312 20.9971 47.1094V42.2391C22.3066 42.7039 23.2471 43.9552 23.2471 45.4219V51.7258C23.2458 53.568 22.5998 55.3517 21.4212 56.7675L19.9688 58.511C19.2796 59.3384 18.7392 60.2699 18.3464 61.2589C18.3337 61.2864 18.3222 61.3144 18.3118 61.3429Z" fill="#5BB543"/>
</svg>
