<svg width="20" height="18" viewBox="0 0 20 18" fill="none" xmlns="http://www.w3.org/2000/svg">
<path d="M17.7503 17.5C18.2476 17.5 18.7245 17.3025 19.0762 16.9508C19.4278 16.5992 19.6253 16.1223 19.6253 15.625V11.0462C19.6253 10.549 19.4278 10.0721 19.0762 9.72042C18.7245 9.36879 18.2476 9.17125 17.7503 9.17125H15.1478C15.1478 8.5125 15.1866 7.85375 15.2641 7.195C15.3803 6.4975 15.5741 5.8775 15.8453 5.335C16.1166 4.7925 16.466 4.36562 16.8935 4.05437C17.3185 3.70563 17.861 3.53125 18.521 3.53125V0.625C17.436 0.625 16.486 0.8575 15.671 1.3225C14.8616 1.78164 14.1662 2.41742 13.6366 3.1825C13.1034 4.02466 12.7107 4.94797 12.4741 5.91625C12.2348 6.98452 12.1178 8.07654 12.1253 9.17125V15.625C12.1253 16.1223 12.3229 16.5992 12.6745 16.9508C13.0261 17.3025 13.5031 17.5 14.0003 17.5H17.7503ZM6.50034 17.5C6.99762 17.5 7.47454 17.3025 7.82617 16.9508C8.1778 16.5992 8.37534 16.1223 8.37534 15.625V11.0462C8.37534 10.549 8.1778 10.0721 7.82617 9.72042C7.47454 9.36879 6.99762 9.17125 6.50034 9.17125H3.89784C3.89784 8.5125 3.93659 7.85375 4.01409 7.195C4.13159 6.4975 4.32534 5.8775 4.59534 5.335C4.86659 4.7925 5.21597 4.36562 5.64347 4.05437C6.06847 3.70563 6.61097 3.53125 7.27097 3.53125V0.625C6.18597 0.625 5.23597 0.8575 4.42097 1.3225C3.61161 1.78164 2.91623 2.41742 2.38659 3.1825C1.85336 4.02466 1.46073 4.94797 1.22409 5.91625C0.984811 6.98452 0.867809 8.07654 0.875342 9.17125V15.625C0.875342 16.1223 1.07289 16.5992 1.42452 16.9508C1.77615 17.3025 2.25306 17.5 2.75034 17.5H6.50034Z" fill="#47BE27"/>
</svg>
