<svg width="21" height="20" viewBox="0 0 21 20" fill="none" xmlns="http://www.w3.org/2000/svg">
<g clip-path="url(#clip0_364_1620)">
<path d="M16.0109 0H4.98909C2.50983 0 0.5 2.00983 0.5 4.48909V15.5109C0.5 17.9902 2.50983 20 4.98909 20H16.0109C18.4902 20 20.5 17.9902 20.5 15.5109V4.48909C20.5 2.00983 18.4902 0 16.0109 0Z" fill="#4C76BE"/>
<path fill-rule="evenodd" clip-rule="evenodd" d="M12.1799 6.43583H13.323V4.68315C13.1429 4.68315 12.9558 4.64158 12.7688 4.62773H11.7365C11.2169 4.62476 10.7089 4.78199 10.2818 5.07802C10.0452 5.2493 9.84547 5.46632 9.69434 5.71621C9.54322 5.96611 9.44379 6.24379 9.40195 6.53282C9.36288 6.78035 9.34204 7.03042 9.3396 7.281V8.60417H7.67004V10.5508H9.33267V15.4486H11.3625V10.5439H13.0182L13.2745 8.58339H11.3486V7.19787C11.3832 6.62288 11.7227 6.44969 12.1799 6.43583Z" fill="white"/>
</g>
<defs>
<clipPath id="clip0_364_1620">
<rect width="20" height="20" fill="white" transform="translate(0.5)"/>
</clipPath>
</defs>
</svg>
