<svg width="13" height="15" viewBox="0 0 13 15" fill="none" xmlns="http://www.w3.org/2000/svg">
<path d="M0.166626 9.08333C0.166626 7.69792 0.496487 6.46424 1.15621 5.38229C1.81593 4.30035 2.54163 3.38993 3.33329 2.65104C4.12496 1.91215 4.85065 1.34796 5.51038 0.958458L6.49996 0.375V2.9875C6.49996 3.47569 6.66489 3.8615 6.99475 4.14492C7.32461 4.42833 7.69406 4.57031 8.10308 4.57083C8.32739 4.57083 8.54193 4.52465 8.74671 4.43229C8.95149 4.33993 9.13938 4.18819 9.31038 3.97708L9.66663 3.54167C10.6166 4.09583 11.3819 4.86428 11.9625 5.847C12.543 6.82972 12.8333 7.9085 12.8333 9.08333C12.8333 10.2444 12.5496 11.3034 11.9823 12.2603C11.4149 13.2172 10.6694 13.9721 9.74579 14.5253C9.9701 14.2086 10.1451 13.8624 10.2707 13.4866C10.3963 13.1108 10.4588 12.7118 10.4583 12.2896C10.4583 11.7618 10.3593 11.2636 10.1614 10.7949C9.9635 10.3263 9.67982 9.90746 9.31038 9.53854L6.49996 6.7875L3.70933 9.53854C3.3267 9.92118 3.03642 10.3434 2.8385 10.8052C2.64058 11.267 2.54163 11.7618 2.54163 12.2896C2.54163 12.7118 2.60443 13.1111 2.73004 13.4874C2.85565 13.8637 3.03035 14.2099 3.25413 14.526C2.33051 13.9719 1.58503 13.2164 1.01767 12.2595C0.450306 11.3026 0.166626 10.2439 0.166626 9.08333ZM6.49996 9.00417L8.18225 10.6469C8.40656 10.8712 8.57808 11.1219 8.69683 11.399C8.81558 11.676 8.87496 11.9729 8.87496 12.2896C8.87496 12.9361 8.64406 13.4871 8.18225 13.9426C7.72045 14.3981 7.15968 14.6255 6.49996 14.625C5.84024 14.6245 5.27947 14.397 4.81767 13.9426C4.35586 13.4882 4.12496 12.9372 4.12496 12.2896C4.12496 11.9861 4.18433 11.6927 4.30308 11.4093C4.42183 11.1258 4.59336 10.8717 4.81767 10.6469L6.49996 9.00417Z" fill="#47BE27"/>
</svg>
