<svg width="15" height="14" viewBox="0 0 15 14" fill="none" xmlns="http://www.w3.org/2000/svg">
<path d="M3.51158 3.63821C3.19756 3.63821 2.93129 3.52632 2.71279 3.30254C2.49377 3.07876 2.38425 2.80986 2.38425 2.49583C2.38425 2.1818 2.49377 1.91316 2.71279 1.68991C2.93182 1.46666 3.19782 1.35478 3.51079 1.35425C3.83485 1.35425 4.10877 1.46614 4.33254 1.68991C4.55632 1.91369 4.66821 2.18233 4.66821 2.49583C4.66821 2.80933 4.55632 3.07823 4.33254 3.30254C4.10877 3.52685 3.83511 3.63873 3.51158 3.63821ZM1.65354 13.6251C1.29888 13.6251 0.996988 13.5005 0.747877 13.2514C0.498766 13.0023 0.374474 12.7007 0.375002 12.3465V6.98696H2.598V5.72425C2.598 5.406 2.7062 5.14132 2.92259 4.93021C3.13845 4.7191 3.40577 4.61354 3.72454 4.61354C3.90715 4.61354 4.08027 4.64837 4.24388 4.71804C4.40749 4.78823 4.55104 4.89036 4.67454 5.02441L5.72192 6.19054C5.85492 6.35679 6.00217 6.50404 6.16367 6.63229C6.32464 6.76001 6.49511 6.87876 6.67509 6.98854H14.625V12.3473C14.625 12.7009 14.5004 13.0026 14.2513 13.2522C14.0022 13.5013 13.7006 13.6259 13.3465 13.6259L1.65354 13.6251ZM12.6759 5.09883L12.7242 4.6555C12.7596 4.32511 12.7086 4.01003 12.5714 3.71025C12.4342 3.41047 12.2468 3.14183 12.0093 2.90433C11.6974 2.58239 11.4491 2.22587 11.2644 1.83479C11.0797 1.44371 11.01 1.02676 11.0554 0.583956L11.095 0.166748H11.8684L11.8201 0.641748C11.7874 0.958415 11.8357 1.26426 11.965 1.55929C12.0948 1.85379 12.2769 2.10818 12.5113 2.32246C12.8358 2.64757 13.0913 3.0091 13.2776 3.40704C13.4639 3.80446 13.5343 4.22932 13.489 4.68162L13.4494 5.09962L12.6759 5.09883ZM9.49342 5.09883L9.5425 4.6555C9.57786 4.31508 9.52429 3.99498 9.38179 3.69521C9.23929 3.39543 9.04929 3.13154 8.81179 2.90354C8.51043 2.58212 8.26739 2.22587 8.08267 1.83479C7.89795 1.44371 7.82828 1.02676 7.87367 0.583956L7.91325 0.166748H8.68671L8.63842 0.641748C8.60253 0.958415 8.65003 1.26162 8.78092 1.55137C8.91181 1.84112 9.08941 2.09815 9.31371 2.32246C9.63882 2.63701 9.89427 2.9959 10.08 3.39912C10.2663 3.80182 10.3418 4.22932 10.3065 4.68162L10.2669 5.09962L9.49342 5.09883ZM10.9564 12.8334H13.2245V7.77942H10.9556L10.9564 12.8334ZM7.89583 12.8334H10.1648V7.77942H7.89583V12.8334ZM4.83525 12.8334H7.10417V7.77942H4.83604L4.83525 12.8334ZM1.77625 12.8334H4.04438V7.77942H1.77625V12.8334Z" fill="#47BE27"/>
</svg>
