<svg width="21" height="20" viewBox="0 0 21 20" fill="none" xmlns="http://www.w3.org/2000/svg">
<g clip-path="url(#clip0_364_1613)">
<path d="M5.57157 19.9292C4.79798 19.9206 4.03167 19.7787 3.30627 19.5098C2.77656 19.314 2.2973 19.0023 1.90353 18.5975C1.4976 18.2045 1.18543 17.7251 0.990196 17.1949C0.72152 16.4695 0.57984 15.7033 0.571373 14.9298C0.511961 13.6439 0.5 13.2582 0.5 10C0.5 6.74176 0.513137 6.35745 0.570784 5.07059C0.580279 4.29741 0.722134 3.53156 0.990196 2.80627C1.18638 2.27647 1.49811 1.79702 1.90275 1.40275C2.29602 0.997182 2.77551 0.685298 3.30569 0.490196C4.03108 0.221297 4.7974 0.0794173 5.57098 0.0707843C6.85725 0.0119608 7.24353 0 10.5 0C13.7565 0 14.1425 0.0131373 15.4294 0.0707843C16.2028 0.0802118 16.9688 0.222068 17.6943 0.490196C18.2243 0.685556 18.7036 0.997331 19.0971 1.40255C19.5024 1.79613 19.8143 2.27561 20.0098 2.80569C20.2788 3.53107 20.4207 4.29738 20.4294 5.07098C20.4882 6.35784 20.5002 6.74314 20.5002 10.0004C20.5002 13.2576 20.4882 13.6429 20.4294 14.9298C20.4201 15.7033 20.2781 16.4694 20.0098 17.1949C19.8068 17.721 19.4959 18.1988 19.0971 18.5975C18.6983 18.9962 18.2205 19.307 17.6943 19.5098C16.9689 19.7788 16.2026 19.9207 15.429 19.9294C14.1433 19.9882 13.7569 20.0002 10.4996 20.0002C7.24235 20.0002 6.85706 19.9888 5.57137 19.9294" fill="url(#paint0_radial_364_1613)"/>
<path d="M5.57157 19.9292C4.79798 19.9206 4.03167 19.7787 3.30627 19.5098C2.77656 19.314 2.2973 19.0023 1.90353 18.5975C1.4976 18.2045 1.18543 17.7251 0.990196 17.1949C0.72152 16.4695 0.57984 15.7033 0.571373 14.9298C0.511961 13.6439 0.5 13.2582 0.5 10C0.5 6.74176 0.513137 6.35745 0.570784 5.07059C0.580279 4.29741 0.722134 3.53156 0.990196 2.80627C1.18638 2.27647 1.49811 1.79702 1.90275 1.40275C2.29602 0.997182 2.77551 0.685298 3.30569 0.490196C4.03108 0.221297 4.7974 0.0794173 5.57098 0.0707843C6.85725 0.0119608 7.24353 0 10.5 0C13.7565 0 14.1425 0.0131373 15.4294 0.0707843C16.2028 0.0802118 16.9688 0.222068 17.6943 0.490196C18.2243 0.685556 18.7036 0.997331 19.0971 1.40255C19.5024 1.79613 19.8143 2.27561 20.0098 2.80569C20.2788 3.53107 20.4207 4.29738 20.4294 5.07098C20.4882 6.35784 20.5002 6.74314 20.5002 10.0004C20.5002 13.2576 20.4882 13.6429 20.4294 14.9298C20.4201 15.7033 20.2781 16.4694 20.0098 17.1949C19.8068 17.721 19.4959 18.1988 19.0971 18.5975C18.6983 18.9962 18.2205 19.307 17.6943 19.5098C16.9689 19.7788 16.2026 19.9207 15.429 19.9294C14.1433 19.9882 13.7569 20.0002 10.4996 20.0002C7.24235 20.0002 6.85706 19.9888 5.57137 19.9294" fill="url(#paint1_radial_364_1613)"/>
<path d="M8.04455 10.0426C8.04459 9.5528 8.18988 9.07396 8.46206 8.6667C8.73424 8.25943 9.12108 7.94201 9.57366 7.7546C10.0262 7.56719 10.5242 7.5182 11.0047 7.61382C11.4851 7.70943 11.9264 7.94536 12.2727 8.29178C12.619 8.63819 12.8548 9.07953 12.9503 9.55998C13.0459 10.0404 12.9967 10.5384 12.8092 10.9909C12.6217 11.4435 12.3042 11.8302 11.8969 12.1023C11.4895 12.3744 11.0107 12.5196 10.5208 12.5195C9.864 12.5194 9.23412 12.2584 8.76973 11.7939C8.30535 11.3294 8.0445 10.6995 8.04455 10.0426ZM6.70553 10.0426C6.70553 10.7972 6.92929 11.5349 7.34852 12.1623C7.76775 12.7897 8.36362 13.2787 9.06077 13.5675C9.75792 13.8563 10.5251 13.9318 11.2651 13.7846C12.0052 13.6374 12.6851 13.274 13.2186 12.7405C13.7522 12.2069 14.1156 11.5271 14.2628 10.787C14.41 10.0469 14.3345 9.27975 14.0457 8.58259C13.7569 7.88544 13.2679 7.28957 12.6405 6.87034C12.0131 6.45111 11.2754 6.22735 10.5208 6.22735C10.0198 6.22732 9.52364 6.32599 9.06074 6.51772C8.59784 6.70945 8.17723 6.99048 7.82294 7.34476C7.46865 7.69905 7.18762 8.11966 6.9959 8.58256C6.80417 9.04547 6.7055 9.5416 6.70553 10.0426ZM13.5955 6.07617C13.5954 6.25251 13.6477 6.42491 13.7456 6.57157C13.8435 6.71823 13.9827 6.83256 14.1455 6.90012C14.3084 6.96767 14.4877 6.98541 14.6606 6.95108C14.8336 6.91676 14.9925 6.83191 15.1173 6.70728C15.242 6.58264 15.327 6.42382 15.3615 6.25089C15.3959 6.07796 15.3784 5.89868 15.3109 5.73574C15.2435 5.5728 15.1293 5.43351 14.9827 5.33547C14.8362 5.23744 14.6638 5.18508 14.4875 5.185C14.2511 5.1851 14.0245 5.27902 13.8573 5.44611C13.6901 5.6132 13.5961 5.83981 13.5959 6.07617M7.51945 16.0907C7.04829 16.0855 6.58154 15.9993 6.13964 15.8358C5.81917 15.7123 5.52811 15.523 5.2852 15.2802C5.04229 15.0374 4.85291 14.7464 4.72925 14.426C4.56568 13.9841 4.47945 13.5173 4.47435 13.0462C4.43827 12.263 4.43121 12.0277 4.43121 10.0436C4.43121 8.05951 4.43906 7.8248 4.47435 7.04088C4.48007 6.56978 4.56627 6.10312 4.72925 5.66107C4.85276 5.3405 5.04209 5.04937 5.28501 4.80644C5.52793 4.56352 5.81907 4.3742 6.13964 4.25068C6.58152 4.08711 7.04829 4.00089 7.51945 3.99578C8.30258 3.9597 8.53788 3.95265 10.5212 3.95265C12.5045 3.95265 12.74 3.96029 13.524 3.99598C13.9951 4.0017 14.4617 4.0879 14.9038 4.25088C15.2243 4.37441 15.5155 4.56373 15.7584 4.80665C16.0013 5.04957 16.1906 5.3407 16.3142 5.66127C16.4777 6.10316 16.5639 6.56992 16.5691 7.04108C16.6051 7.82539 16.6122 8.05951 16.6122 10.0438C16.6122 12.0281 16.6049 12.2626 16.5691 13.0466C16.5636 13.5177 16.4773 13.9844 16.3142 14.4264C16.1905 14.7468 16.0011 15.0378 15.7582 15.2806C15.5153 15.5234 15.2242 15.7126 14.9038 15.8362C14.4619 15.9997 13.9951 16.086 13.524 16.0911C12.7408 16.1272 12.5055 16.1342 10.5212 16.1342C8.5369 16.1342 8.30239 16.127 7.51945 16.0911M7.45788 2.65794C6.84138 2.67006 6.2314 2.78675 5.65396 3.00303C5.16033 3.19389 4.71203 3.48579 4.3378 3.86002C3.96358 4.23425 3.67167 4.68255 3.48082 5.17617C3.26456 5.75363 3.14787 6.3636 3.13572 6.9801C3.09906 7.77225 3.09082 8.02558 3.09082 10.0434C3.09082 12.0613 3.09925 12.3144 3.13572 13.1068C3.14787 13.7233 3.26456 14.3332 3.48082 14.9107C3.67168 15.4043 3.96359 15.8526 4.33782 16.2268C4.71204 16.601 5.16034 16.893 5.65396 17.0838C6.23143 17.3 6.84139 17.4167 7.45788 17.4289C8.25043 17.465 8.50337 17.4738 10.5212 17.4738C12.5391 17.4738 12.7922 17.4654 13.5845 17.4289C14.201 17.4167 14.811 17.3001 15.3885 17.0838C15.8821 16.893 16.3304 16.601 16.7046 16.2268C17.0788 15.8526 17.3707 15.4043 17.5616 14.9107C17.7781 14.3333 17.8948 13.7233 17.9067 13.1068C17.9428 12.314 17.951 12.0613 17.951 10.0434C17.951 8.02558 17.9426 7.77245 17.9067 6.9801C17.8946 6.36359 17.7779 5.75362 17.5616 5.17617C17.3707 4.68264 17.0789 4.23441 16.7048 3.86019C16.3307 3.48598 15.8825 3.19402 15.3891 3.00303C14.8117 2.78661 14.2017 2.66992 13.5851 2.65794C12.7928 2.62167 12.5396 2.61304 10.5222 2.61304C8.50474 2.61304 8.25101 2.62147 7.45827 2.65794" fill="white"/>
</g>
<defs>
<radialGradient id="paint0_radial_364_1613" cx="0" cy="0" r="1" gradientUnits="userSpaceOnUse" gradientTransform="translate(1.79431 19.562) scale(25.3925)">
<stop offset="0.09" stop-color="#FA8F21"/>
<stop offset="0.78" stop-color="#D82D7E"/>
</radialGradient>
<radialGradient id="paint1_radial_364_1613" cx="0" cy="0" r="1" gradientUnits="userSpaceOnUse" gradientTransform="translate(14.3533 18.9196) scale(22.3457)">
<stop offset="0.64" stop-color="#8C3AAA" stop-opacity="0"/>
<stop offset="1" stop-color="#8C3AAA"/>
</radialGradient>
<clipPath id="clip0_364_1613">
<rect width="20" height="20" fill="white" transform="translate(0.5)"/>
</clipPath>
</defs>
</svg>
