<svg width="11" height="16" viewBox="0 0 11 16" fill="none" xmlns="http://www.w3.org/2000/svg">
<path fill-rule="evenodd" clip-rule="evenodd" d="M10.25 6.075H6.62762L8.78697 1.03715C8.81796 0.964868 8.83051 0.886023 8.82351 0.807692C8.8165 0.729362 8.79016 0.653995 8.74684 0.588358C8.70352 0.52272 8.64458 0.468865 8.57532 0.431627C8.50605 0.394388 8.42862 0.37493 8.34997 0.375H3.59997C3.50695 0.374917 3.41595 0.402152 3.33826 0.453323C3.26058 0.504494 3.19963 0.57735 3.16297 0.66285L0.312974 7.31285C0.281988 7.38513 0.269435 7.46398 0.276439 7.54231C0.283444 7.62064 0.309788 7.696 0.353106 7.76164C0.396425 7.82728 0.455364 7.88113 0.524632 7.91837C0.5939 7.95561 0.67133 7.97507 0.749974 7.975H3.10027L0.309174 14.9233C0.119174 15.3954 0.705324 15.7954 1.07582 15.4458L5.84862 10.9399L10.5587 6.911C10.6325 6.84789 10.6852 6.76368 10.7097 6.66971C10.7341 6.57574 10.7292 6.47653 10.6956 6.38544C10.662 6.29435 10.6012 6.21576 10.5215 6.16025C10.4419 6.10475 10.3471 6.07499 10.25 6.075ZM5.90752 7.025H8.96367L5.21307 10.2341L1.99732 13.2694L4.24407 7.6767C4.27296 7.60463 4.28373 7.52658 4.27546 7.44938C4.26718 7.37218 4.24011 7.29819 4.19661 7.23388C4.15311 7.16956 4.09451 7.1169 4.02594 7.08048C3.95737 7.04407 3.88091 7.02502 3.80327 7.025H1.47007L3.91347 1.325H7.62987L5.47052 6.36285C5.43954 6.43513 5.42698 6.51398 5.43399 6.59231C5.44099 6.67064 5.46734 6.746 5.51066 6.81164C5.55398 6.87728 5.61291 6.93113 5.68218 6.96837C5.75145 7.00561 5.82888 7.02507 5.90752 7.025Z" fill="#47BE27"/>
</svg>
