<svg width="48" height="64" viewBox="0 0 48 64" fill="none" xmlns="http://www.w3.org/2000/svg">
<path d="M42 63.5H6C4.50816 63.5 3.07742 62.9074 2.02252 61.8525C0.967632 60.7976 0.375 59.3668 0.375 57.875V10.625C0.375 9.13316 0.967632 7.70242 2.02252 6.64752C3.07742 5.59263 4.50816 5 6 5H11.625V7.25H6C5.10489 7.25 4.24645 7.60558 3.61351 8.23851C2.98058 8.87145 2.625 9.72989 2.625 10.625V57.875C2.625 58.7701 2.98058 59.6285 3.61351 60.2615C4.24645 60.8944 5.10489 61.25 6 61.25H42C42.8951 61.25 43.7535 60.8944 44.3865 60.2615C45.0194 59.6285 45.375 58.7701 45.375 57.875V10.625C45.375 9.72989 45.0194 8.87145 44.3865 8.23851C43.7535 7.60558 42.8951 7.25 42 7.25H36.375V5H42C43.4918 5 44.9226 5.59263 45.9775 6.64752C47.0324 7.70242 47.625 9.13316 47.625 10.625V57.875C47.625 59.3668 47.0324 60.7976 45.9775 61.8525C44.9226 62.9074 43.4918 63.5 42 63.5ZM43.125 57.875V10.625C43.125 10.3266 43.0065 10.0405 42.7955 9.8295C42.5845 9.61853 42.2984 9.5 42 9.5H36.375V11.75H40.875V56.75H7.125V11.75H11.625V9.5H6C5.70163 9.5 5.41548 9.61853 5.2045 9.8295C4.99353 10.0405 4.875 10.3266 4.875 10.625V57.875C4.875 58.1734 4.99353 58.4595 5.2045 58.6705C5.41548 58.8815 5.70163 59 6 59H42C42.2984 59 42.5845 58.8815 42.7955 58.6705C43.0065 58.4595 43.125 58.1734 43.125 57.875ZM34.125 15.125V6.125C34.125 5.82663 34.0065 5.54048 33.7955 5.3295C33.5845 5.11853 33.2984 5 33 5H28.5C28.5 3.80653 28.0259 2.66193 27.182 1.81802C26.3381 0.974106 25.1935 0.5 24 0.5C22.8065 0.5 21.6619 0.974106 20.818 1.81802C19.9741 2.66193 19.5 3.80653 19.5 5H15C14.7016 5 14.4155 5.11853 14.2045 5.3295C13.9935 5.54048 13.875 5.82663 13.875 6.125V15.125C13.875 15.4234 13.9935 15.7095 14.2045 15.9205C14.4155 16.1315 14.7016 16.25 15 16.25H33C33.2984 16.25 33.5845 16.1315 33.7955 15.9205C34.0065 15.7095 34.125 15.4234 34.125 15.125ZM16.125 7.25H20.625C20.9234 7.25 21.2095 7.13147 21.4205 6.9205C21.6315 6.70952 21.75 6.42337 21.75 6.125V5C21.75 4.40326 21.9871 3.83097 22.409 3.40901C22.831 2.98705 23.4033 2.75 24 2.75C24.5967 2.75 25.169 2.98705 25.591 3.40901C26.0129 3.83097 26.25 4.40326 26.25 5V6.125C26.25 6.42337 26.3685 6.70952 26.5795 6.9205C26.7905 7.13147 27.0766 7.25 27.375 7.25H31.875V14H16.125V7.25ZM27.375 9.5H20.625V11.75H27.375V9.5ZM36.375 21.875H25.125V24.125H36.375V21.875ZM36.375 28.625H25.125V30.875H36.375V28.625ZM36.375 35.375H25.125V37.625H36.375V35.375ZM36.375 42.125H25.125V44.375H36.375V42.125ZM20.625 50V43.25C20.625 42.9516 20.5065 42.6655 20.2955 42.4545C20.0845 42.2435 19.7984 42.125 19.5 42.125H12.75C12.4516 42.125 12.1655 42.2435 11.9545 42.4545C11.7435 42.6655 11.625 42.9516 11.625 43.25V50C11.625 50.2984 11.7435 50.5845 11.9545 50.7955C12.1655 51.0065 12.4516 51.125 12.75 51.125H19.5C19.7984 51.125 20.0845 51.0065 20.2955 50.7955C20.5065 50.5845 20.625 50.2984 20.625 50ZM13.875 44.375H18.375V48.875H13.875V44.375ZM36.375 42.125H25.125V44.375H36.375V42.125ZM20.625 50V43.25C20.625 42.9516 20.5065 42.6655 20.2955 42.4545C20.0845 42.2435 19.7984 42.125 19.5 42.125H12.75C12.4516 42.125 12.1655 42.2435 11.9545 42.4545C11.7435 42.6655 11.625 42.9516 11.625 43.25V50C11.625 50.2984 11.7435 50.5845 11.9545 50.7955C12.1655 51.0065 12.4516 51.125 12.75 51.125H19.5C19.7984 51.125 20.0845 51.0065 20.2955 50.7955C20.5065 50.5845 20.625 50.2984 20.625 50ZM13.875 44.375H18.375V48.875H13.875V44.375ZM36.375 48.875H25.125V51.125H36.375V48.875ZM15.7987 28.2987L20.2987 23.7987L18.7013 22.2013L14.8538 26.0487L12.2437 24.3162L11.0063 26.1838L14.3813 28.4338C14.5643 28.5568 14.7795 28.6233 15 28.625C15.1481 28.6259 15.2948 28.5975 15.4319 28.5415C15.569 28.4855 15.6936 28.403 15.7987 28.2987ZM15.7987 37.2987L20.2987 32.7987L18.7013 31.2013L14.8538 35.0487L12.2437 33.3162L11.0063 35.1838L14.3813 37.4338C14.5643 37.5568 14.7795 37.6233 15 37.625C15.1481 37.6259 15.2948 37.5975 15.4319 37.5415C15.569 37.4855 15.6936 37.403 15.7987 37.2987Z" fill="#5BB543"/>
</svg>
