<svg width="73" height="72" viewBox="0 0 73 72" fill="none" xmlns="http://www.w3.org/2000/svg">
<path d="M32.5175 47.5763C32.2138 47.584 31.9117 47.5302 31.6295 47.418C31.3472 47.3059 31.0905 47.1377 30.875 46.9237L20.1875 36.2362C19.7653 35.8141 19.5281 35.2414 19.5281 34.6444C19.5281 34.0473 19.7653 33.4747 20.1875 33.0525C20.6096 32.6303 21.1823 32.3931 21.7793 32.3931C22.3764 32.3931 22.949 32.6303 23.3712 33.0525L32.4725 42.1538L49.5837 25.0763C49.7928 24.8672 50.0409 24.7014 50.3141 24.5882C50.5872 24.4751 50.8799 24.4169 51.1756 24.4169C51.4712 24.4169 51.764 24.4751 52.0371 24.5882C52.3102 24.7014 52.5584 24.8672 52.7675 25.0763C52.9765 25.2853 53.1423 25.5335 53.2555 25.8066C53.3686 26.0797 53.4268 26.3725 53.4268 26.6681C53.4268 26.9638 53.3686 27.2565 53.2555 27.5296C53.1423 27.8028 52.9765 28.051 52.7675 28.26L34.1037 46.9237C33.6818 47.3422 33.1116 47.5767 32.5175 47.5763Z" fill="#5BB543"/>
<path d="M36.4999 67.5C30.3452 67.4908 24.3279 65.6787 19.1916 62.2876C14.0552 58.8966 10.0248 54.075 7.59835 48.4188C5.17185 42.7625 4.45555 36.5192 5.53795 30.4604C6.62034 24.4015 9.45401 18.7925 13.6889 14.3262C17.9237 9.85995 23.3742 6.73216 29.367 5.32925C35.3598 3.92634 41.6322 4.30979 47.4095 6.43221C53.1868 8.55463 58.2157 12.323 61.875 17.2719C65.5343 22.2207 67.6636 28.1332 68 34.2787C68.0337 34.8739 67.83 35.4581 67.4335 35.9031C67.0369 36.3482 66.48 36.6177 65.8849 36.6525C65.5885 36.6707 65.2913 36.6301 65.0106 36.5329C64.7299 36.4357 64.4712 36.2839 64.2495 36.0862C64.0278 35.8886 63.8474 35.6489 63.7187 35.3812C63.5901 35.1134 63.5157 34.8229 63.5 34.5263C63.1947 28.8855 61.1279 23.4825 57.5906 19.0781C54.0532 14.6736 49.2235 11.4897 43.7814 9.97448C38.3394 8.45927 32.5591 8.68916 27.2546 10.6318C21.9501 12.5744 17.3884 16.1318 14.212 20.8032C11.0356 25.4747 9.40443 31.0247 9.54813 36.672C9.69183 42.3192 11.6032 47.7791 15.0131 52.2829C18.423 56.7867 23.1596 60.1076 28.5561 61.7779C33.9526 63.4482 39.737 63.3838 45.0949 61.5938C48.4959 60.4619 51.6358 58.6603 54.3293 56.2953C57.0227 53.9303 59.2152 51.0498 60.7775 47.8237C60.896 47.5417 61.0709 47.2867 61.2914 47.0745C61.5119 46.8624 61.7733 46.6974 62.0598 46.5897C62.3462 46.482 62.6516 46.4339 62.9573 46.4482C63.2629 46.4626 63.5624 46.5392 63.8375 46.6732C64.1126 46.8073 64.3574 46.9961 64.557 47.228C64.7566 47.46 64.9068 47.7302 64.9984 48.0222C65.09 48.3141 65.1211 48.6217 65.0898 48.9261C65.0585 49.2305 64.9654 49.5253 64.8162 49.7925C62.9982 53.56 60.4424 56.9242 57.3002 59.6857C54.1581 62.4472 50.4935 64.5497 46.5237 65.8688C43.292 66.9484 39.9072 67.4992 36.4999 67.5Z" fill="#5BB543"/>
</svg>
